<svg width="46" height="46" viewBox="0 0 46 46" fill="none" xmlns="http://www.w3.org/2000/svg">
<g id="v2-area-chart-color">
<g id="Mask group">
<mask id="mask0_1232_36792" style="mask-type:alpha" maskUnits="userSpaceOnUse" x="0" y="0" width="46" height="46">
<g id="Group">
<path id="Vector" d="M46 0.932358H0V45.6891H46V0.932358Z" fill="#C4C4C4"/>
</g>
</mask>
<g mask="url(#mask0_1232_36792)">
<g id="Group_2">
<path id="Vector_2" opacity="0.2" d="M46.0012 2.7972V41.9594C46.0012 44.0193 44.2848 45.6891 42.1678 45.6891H3.83443C1.71734 45.6891 0.00109854 44.0193 0.00109863 41.9594L0.00109953 21.1186L9.66109 23.8669L17.7112 14.4771L29.9012 20.2026L46.0012 2.7972Z" fill="#00D2AA"/>
<path id="Vector_3" opacity="0.2" d="M46.001 2.79727V41.9595C46.001 44.0193 44.2848 45.6892 42.1677 45.6892H3.83443C1.71734 45.6892 0.00109854 44.0193 0.00109863 41.9595L0.00110009 8.15876L8.9711 15.3851L19.5512 23.777L34.501 2.56416L46.0012 13.2872L46.001 2.79727Z" fill="#00D2AA"/>
<path id="Vector_4" d="M49.4502 17.2499L34.0402 2.33101L29.4402 9.09114L19.0902 23.7769L6.21015 13.5201L-3.21985 5.82763" stroke="#00D2AA" stroke-width="2.0125" stroke-linecap="round" stroke-linejoin="round"/>
<path id="Vector_5" d="M0.000976562 20.9796L10.0483 24.2431L18.0378 14.6857L30.3609 20.5134L46.4609 2.7972" stroke="#00D2AA" stroke-width="2.0125" stroke-linecap="square" stroke-linejoin="round"/>
</g>
</g>
</g>
</g>
</svg>
