<svg width="46" height="46" viewBox="0 0 46 46" fill="none" xmlns="http://www.w3.org/2000/svg">
<g id="v2-bar-chart-color" clip-path="url(#clip0_1232_36681)">
<path id="Vector" d="M4.79167 20.24H0.958333C0.42906 20.24 0 20.6691 0 21.1983V45.0417C0 45.5709 0.42906 46 0.958333 46H4.79167C5.32094 46 5.75 45.5709 5.75 45.0417V21.1983C5.75 20.6691 5.32094 20.24 4.79167 20.24Z" fill="#00D2AA"/>
<path id="Vector_2" d="M18.2087 0H14.3753C13.8461 0 13.417 0.42906 13.417 0.958333V45.0417C13.417 45.5709 13.8461 46 14.3753 46H18.2087C18.7379 46 19.167 45.5709 19.167 45.0417V0.958333C19.167 0.42906 18.7379 0 18.2087 0Z" fill="#00D2AA"/>
<path id="Vector_3" d="M31.6248 34.96H27.7915C27.2622 34.96 26.8331 35.3891 26.8331 35.9183V45.0417C26.8331 45.5709 27.2622 46 27.7915 46H31.6248C32.1541 46 32.5831 45.5709 32.5831 45.0417V35.9183C32.5831 35.3891 32.1541 34.96 31.6248 34.96Z" fill="#00D2AA"/>
<path id="Vector_4" d="M45.0418 23.92H41.2085C40.6792 23.92 40.2501 24.3491 40.2501 24.8783V45.0417C40.2501 45.5709 40.6792 46 41.2085 46H45.0418C45.5711 46 46.0001 45.5709 46.0001 45.0417V24.8783C46.0001 24.3491 45.5711 23.92 45.0418 23.92Z" fill="#00D2AA"/>
</g>
<defs>
<clipPath id="clip0_1232_36681">
<rect width="46" height="46" fill="white"/>
</clipPath>
</defs>
</svg>
