<svg width="46" height="46" viewBox="0 0 46 46" fill="none" xmlns="http://www.w3.org/2000/svg">
<g id="v2-stacked-bar-chart-color" clip-path="url(#clip0_1232_36686)">
<path id="Vector" d="M0.000366211 40.48H5.75036V45.0417C5.75036 45.5709 5.32131 46 4.79203 46H0.958699C0.429427 46 0.000366211 45.5709 0.000366211 45.0417V40.48Z" fill="#00D2AA"/>
<path id="Vector_2" d="M13.4172 24.84H19.1672V45.0417C19.1672 45.5709 18.7382 46 18.2089 46H14.3756C13.8463 46 13.4172 45.5709 13.4172 45.0417V24.84Z" fill="#00D2AA"/>
<path id="Vector_3" d="M26.8335 42.32H32.5835V45.0417C32.5835 45.5709 32.1544 46 31.6252 46H27.7918C27.2626 46 26.8335 45.5709 26.8335 45.0417V42.32Z" fill="#00D2AA"/>
<path id="Vector_4" d="M40.2505 39.5601H46.0005V45.0418C46.0005 45.571 45.5714 46.0001 45.0422 46.0001H41.2088C40.6796 46.0001 40.2505 45.571 40.2505 45.0418V39.5601Z" fill="#00D2AA"/>
<path id="Vector_5" d="M0.000366211 21.1983C0.000366211 20.6691 0.429427 20.24 0.958699 20.24H4.79203C5.32131 20.24 5.75036 20.6691 5.75036 21.1983V35.88H0.000366211V21.1983Z" fill="#FFCC69"/>
<path id="Vector_6" d="M13.4172 0.958333C13.4172 0.42906 13.8463 0 14.3756 0H18.2089C18.7382 0 19.1672 0.42906 19.1672 0.958333V9.2H13.4172V0.958333Z" fill="#FFCC69"/>
<path id="Vector_7" d="M26.8335 35.9183C26.8335 35.3891 27.2626 34.96 27.7918 34.96H31.6252C32.1544 34.96 32.5835 35.3891 32.5835 35.9183V40.48H26.8335V35.9183Z" fill="#FFCC69"/>
<path id="Vector_8" d="M40.2505 24.8783C40.2505 24.3489 40.6796 23.92 41.2088 23.92H45.0422C45.5714 23.92 46.0005 24.3489 46.0005 24.8783V34.04H40.2505V24.8783Z" fill="#FFCC69"/>
<path id="Vector_9" d="M0.000366211 35.88H5.75036V40.48H0.000366211V35.88Z" fill="#00AAE1"/>
<path id="Vector_10" d="M13.4172 9.2H19.1672V24.84H13.4172V9.2Z" fill="#00AAE1"/>
<path id="Vector_11" d="M26.8335 40.48H32.5835V42.32H26.8335V40.48Z" fill="#00AAE1"/>
<path id="Vector_12" d="M40.2505 34.04H46.0005V39.56H40.2505V34.04Z" fill="#00AAE1"/>
</g>
<defs>
<clipPath id="clip0_1232_36686">
<rect width="46" height="46" fill="white"/>
</clipPath>
</defs>
</svg>
