<svg width="46" height="46" viewBox="0 0 46 46" fill="none" xmlns="http://www.w3.org/2000/svg">
<g id="v2-100p-stacked-bar-chart-color" clip-path="url(#clip0_1232_36699)">
<path id="Vector" d="M0 31.2801H5.75V45.0418C5.75 45.571 5.32094 46.0001 4.79167 46.0001H0.958333C0.429061 46.0001 0 45.571 0 45.0418V31.2801Z" fill="#00D2AA"/>
<path id="Vector_2" d="M13.4169 20.2401H19.1669V45.0418C19.1669 45.5711 18.7379 46.0001 18.2085 46.0001H14.3752C13.8459 46.0001 13.4169 45.5711 13.4169 45.0418V20.2401Z" fill="#00D2AA"/>
<path id="Vector_3" d="M26.8333 28.9801H32.5833V45.0418C32.5833 45.571 32.1542 46.0001 31.6249 46.0001H27.7916C27.2623 46.0001 26.8333 45.571 26.8333 45.0418V28.9801Z" fill="#00D2AA"/>
<path id="Vector_4" d="M40.2501 35.8801H46.0001V45.0418C46.0001 45.571 45.571 46.0001 45.0418 46.0001H41.2085C40.6792 46.0001 40.2501 45.571 40.2501 45.0418V35.8801Z" fill="#00D2AA"/>
<path id="Vector_5" d="M0 0.958333C0 0.429061 0.42906 0 0.958333 0H4.79167C5.32094 0 5.75 0.42906 5.75 0.958333V26.68H0V0.958333Z" fill="#FFCC69"/>
<path id="Vector_6" d="M13.4169 0.958432C13.4169 0.42916 13.8459 9.91821e-05 14.3752 9.91821e-05H18.2085C18.7379 9.91821e-05 19.1669 0.42916 19.1669 0.958432V9.2001H13.4169V0.958432Z" fill="#FFCC69"/>
<path id="Vector_7" d="M26.8333 0.958431C26.8333 0.429159 27.2623 9.91821e-05 27.7916 9.91821e-05H31.6249C32.1542 9.91821e-05 32.5833 0.42916 32.5833 0.958432V22.5401H26.8333V0.958431Z" fill="#FFCC69"/>
<path id="Vector_8" d="M40.2501 0.958433C40.2501 0.42916 40.6792 9.91821e-05 41.2085 9.91821e-05H45.0418C45.571 9.91821e-05 46.0001 0.42916 46.0001 0.958432V12.8801H40.2501V0.958433Z" fill="#FFCC69"/>
<path id="Vector_9" d="M0 26.6801H5.75V31.2801H0V26.6801Z" fill="#00AAE1"/>
<path id="Vector_10" d="M13.4169 9.20009H19.1669V20.2401H13.4169V9.20009Z" fill="#00AAE1"/>
<path id="Vector_11" d="M26.8333 22.5401H32.5833V28.9801H26.8333V22.5401Z" fill="#00AAE1"/>
<path id="Vector_12" d="M40.2501 12.8801H46.0001V35.8801H40.2501V12.8801Z" fill="#00AAE1"/>
</g>
<defs>
<clipPath id="clip0_1232_36699">
<rect width="46" height="46" fill="white"/>
</clipPath>
</defs>
</svg>
