<svg width="20" height="21" viewBox="0 0 20 21" fill="none" xmlns="http://www.w3.org/2000/svg">
<g id="Calendar" clip-path="url(#clip0_996_27199)">
<g id="vuesax/outline/calendar">
<g id="Vector">
<path d="M6.30766 4.24467C5.9292 4.24467 5.61535 3.93082 5.61535 3.55236V0.783128C5.61535 0.404666 5.9292 0.0908203 6.30766 0.0908203C6.68612 0.0908203 6.99997 0.404666 6.99997 0.783128V3.55236C6.99997 3.93082 6.68612 4.24467 6.30766 4.24467Z" fill="#556987"/>
<path d="M13.6923 4.24467C13.3138 4.24467 13 3.93082 13 3.55236V0.783128C13 0.404666 13.3138 0.0908203 13.6923 0.0908203C14.0707 0.0908203 14.3846 0.404666 14.3846 0.783128V3.55236C14.3846 3.93082 14.0707 4.24467 13.6923 4.24467Z" fill="#556987"/>
<path d="M6.7692 12.3216C6.6492 12.3216 6.5292 12.2939 6.41843 12.2478C6.29843 12.2016 6.20612 12.137 6.11382 12.0539C5.94766 11.8785 5.84612 11.6478 5.84612 11.3985C5.84612 11.2785 5.87382 11.1585 5.91997 11.0477C5.96613 10.937 6.03074 10.8355 6.11382 10.7431C6.20612 10.6601 6.29843 10.5954 6.41843 10.5493C6.75074 10.4108 7.16612 10.4847 7.42458 10.7431C7.59074 10.9185 7.69228 11.1585 7.69228 11.3985C7.69228 11.4539 7.68305 11.5185 7.67382 11.5831C7.66458 11.6385 7.64612 11.6939 7.61843 11.7493C7.59997 11.8047 7.57228 11.8601 7.53536 11.9154C7.50766 11.9616 7.46151 12.0077 7.42458 12.0539C7.2492 12.22 7.0092 12.3216 6.7692 12.3216Z" fill="#556987"/>
<path d="M9.99997 12.3216C9.87997 12.3216 9.75997 12.2939 9.6492 12.2478C9.5292 12.2016 9.43689 12.137 9.34459 12.0539C9.17843 11.8785 9.07689 11.6477 9.07689 11.3985C9.07689 11.2785 9.10459 11.1585 9.15074 11.0477C9.19689 10.937 9.26151 10.8354 9.34459 10.7431C9.43689 10.6601 9.5292 10.5954 9.6492 10.5493C9.98151 10.4016 10.3969 10.4847 10.6554 10.7431C10.8215 10.9185 10.923 11.1585 10.923 11.3985C10.923 11.4539 10.9138 11.5185 10.9046 11.5831C10.8954 11.6385 10.8769 11.6939 10.8492 11.7493C10.8307 11.8047 10.803 11.86 10.7661 11.9154C10.7384 11.9616 10.6923 12.0077 10.6554 12.0539C10.48 12.22 10.24 12.3216 9.99997 12.3216Z" fill="#556987"/>
<path d="M13.2307 12.3216C13.1107 12.3216 12.9907 12.2939 12.88 12.2478C12.76 12.2016 12.6677 12.137 12.5754 12.0539C12.5384 12.0077 12.5015 11.9616 12.4646 11.9154C12.4277 11.86 12.4 11.8047 12.3815 11.7493C12.3538 11.6939 12.3354 11.6385 12.3261 11.5831C12.3169 11.5185 12.3077 11.4539 12.3077 11.3985C12.3077 11.1585 12.4092 10.9185 12.5754 10.7431C12.6677 10.6601 12.76 10.5954 12.88 10.5493C13.2215 10.4016 13.6277 10.4847 13.8861 10.7431C14.0523 10.9185 14.1538 11.1585 14.1538 11.3985C14.1538 11.4539 14.1446 11.5185 14.1354 11.5831C14.1261 11.6385 14.1077 11.6939 14.08 11.7493C14.0615 11.8047 14.0338 11.86 13.9969 11.9154C13.9692 11.9616 13.923 12.0077 13.8861 12.0539C13.7107 12.22 13.4707 12.3216 13.2307 12.3216Z" fill="#556987"/>
<path d="M6.7692 15.5524C6.6492 15.5524 6.5292 15.5247 6.41843 15.4785C6.30766 15.4324 6.20612 15.3677 6.11382 15.2847C5.94766 15.1093 5.84612 14.8693 5.84612 14.6293C5.84612 14.5093 5.87382 14.3893 5.91997 14.2785C5.96613 14.1585 6.03074 14.057 6.11382 13.9739C6.45536 13.6324 7.08305 13.6324 7.42458 13.9739C7.59074 14.1493 7.69228 14.3893 7.69228 14.6293C7.69228 14.8693 7.59074 15.1093 7.42458 15.2847C7.2492 15.4508 7.0092 15.5524 6.7692 15.5524Z" fill="#556987"/>
<path d="M9.99997 15.5524C9.75997 15.5524 9.51997 15.4508 9.34459 15.2847C9.17843 15.1093 9.07689 14.8693 9.07689 14.6293C9.07689 14.5093 9.10459 14.3893 9.15074 14.2785C9.19689 14.1585 9.26151 14.057 9.34459 13.9739C9.68612 13.6324 10.3138 13.6324 10.6554 13.9739C10.7384 14.057 10.803 14.1585 10.8492 14.2785C10.8954 14.3893 10.923 14.5093 10.923 14.6293C10.923 14.8693 10.8215 15.1093 10.6554 15.2847C10.48 15.4508 10.24 15.5524 9.99997 15.5524Z" fill="#556987"/>
<path d="M13.2307 15.5524C12.9907 15.5524 12.7507 15.4508 12.5754 15.2847C12.4923 15.2016 12.4277 15.1001 12.3815 14.9801C12.3354 14.8693 12.3077 14.7493 12.3077 14.6293C12.3077 14.5093 12.3354 14.3893 12.3815 14.2785C12.4277 14.1585 12.4923 14.057 12.5754 13.9739C12.7877 13.7616 13.1107 13.6601 13.4061 13.7247C13.4707 13.7339 13.5261 13.7524 13.5815 13.7801C13.6369 13.7985 13.6923 13.8263 13.7477 13.8632C13.7938 13.8909 13.84 13.937 13.8861 13.9739C14.0523 14.1493 14.1538 14.3893 14.1538 14.6293C14.1538 14.8693 14.0523 15.1093 13.8861 15.2847C13.7107 15.4508 13.4707 15.5524 13.2307 15.5524Z" fill="#556987"/>
<path d="M17.8461 8.02002H2.15382C1.77535 8.02002 1.46151 7.70617 1.46151 7.32771C1.46151 6.94925 1.77535 6.6354 2.15382 6.6354H17.8461C18.2246 6.6354 18.5384 6.94925 18.5384 7.32771C18.5384 7.70617 18.2246 8.02002 17.8461 8.02002Z" fill="#556987"/>
<path d="M13.6923 19.937H6.30766C2.93843 19.937 0.999969 17.9985 0.999969 14.6293V6.78313C0.999969 3.4139 2.93843 1.47544 6.30766 1.47544H13.6923C17.0615 1.47544 19 3.4139 19 6.78313V14.6293C19 17.9985 17.0615 19.937 13.6923 19.937ZM6.30766 2.86005C3.66766 2.86005 2.38458 4.14313 2.38458 6.78313V14.6293C2.38458 17.2693 3.66766 18.5524 6.30766 18.5524H13.6923C16.3323 18.5524 17.6154 17.2693 17.6154 14.6293V6.78313C17.6154 4.14313 16.3323 2.86005 13.6923 2.86005H6.30766Z" fill="#556987"/>
</g>
</g>
</g>
<defs>
<clipPath id="clip0_996_27199">
<rect width="20" height="20" fill="white" transform="translate(0 0.0908203)"/>
</clipPath>
</defs>
</svg>
