<svg width="34" height="34" viewBox="0 0 34 34" fill="none" xmlns="http://www.w3.org/2000/svg">
<g id="Layer 2">
<g id="close">
<path id="Vector" d="M18.9974 17L25.0891 10.9225C25.3558 10.6557 25.5057 10.2939 25.5057 9.91667C25.5057 9.5394 25.3558 9.1776 25.0891 8.91083C24.8223 8.64407 24.4605 8.4942 24.0832 8.4942C23.706 8.4942 23.3442 8.64407 23.0774 8.91083L16.9999 15.0025L10.9224 8.91083C10.6557 8.64407 10.2938 8.4942 9.91658 8.4942C9.53932 8.4942 9.17751 8.64407 8.91075 8.91083C8.64398 9.1776 8.49412 9.5394 8.49412 9.91667C8.49412 10.2939 8.64398 10.6557 8.91075 10.9225L15.0024 17L8.91075 23.0775C8.77796 23.2092 8.67257 23.3659 8.60065 23.5385C8.52873 23.7111 8.4917 23.8963 8.4917 24.0833C8.4917 24.2703 8.52873 24.4555 8.60065 24.6281C8.67257 24.8008 8.77796 24.9575 8.91075 25.0892C9.04244 25.2219 9.19913 25.3273 9.37176 25.3993C9.5444 25.4712 9.72956 25.5082 9.91658 25.5082C10.1036 25.5082 10.2888 25.4712 10.4614 25.3993C10.634 25.3273 10.7907 25.2219 10.9224 25.0892L16.9999 18.9975L23.0774 25.0892C23.2091 25.2219 23.3658 25.3273 23.5384 25.3993C23.7111 25.4712 23.8962 25.5082 24.0832 25.5082C24.2703 25.5082 24.4554 25.4712 24.6281 25.3993C24.8007 25.3273 24.9574 25.2219 25.0891 25.0892C25.2219 24.9575 25.3273 24.8008 25.3992 24.6281C25.4711 24.4555 25.5081 24.2703 25.5081 24.0833C25.5081 23.8963 25.4711 23.7111 25.3992 23.5385C25.3273 23.3659 25.2219 23.2092 25.0891 23.0775L18.9974 17Z" fill="#2A3342"/>
</g>
</g>
</svg>
