<svg width="16" height="16" viewBox="0 0 16 16" fill="none" xmlns="http://www.w3.org/2000/svg">
<g id="Collection" clip-path="url(#clip0_1241_39672)">
<g id="Edit / Table_Add">
<path id="Vector" d="M7.75875 1H11.8142C12.7605 1 13.2334 1 13.5948 1.18417C13.9128 1.34616 14.1715 1.60446 14.3335 1.9224C14.5175 2.28349 14.5175 2.75642 14.5175 3.70089V5.22438L7.75883 5.2243M7.75875 1H3.70367C2.75735 1 2.28384 1 1.9224 1.18417C1.60446 1.34616 1.34616 1.60446 1.18417 1.9224C1 2.28384 1 2.75735 1 3.70367V5.22422M7.75875 1L7.75883 5.2243M7.75883 5.2243L1 5.22422M7.75883 5.2243L7.75892 14.5175H3.70089C2.75642 14.5175 2.28349 14.5175 1.9224 14.3335C1.60446 14.1715 1.34616 13.9128 1.18417 13.5948C1 13.2334 1 12.7605 1 11.8142V10.2933M1 5.22422V10.2933M1 10.2933H7.75875" stroke="#6F6C90" stroke-width="1.0919" stroke-linecap="round" stroke-linejoin="round"/>
<path id="Vector_2" d="M9.93066 10.836H12.4652M12.4652 10.836H14.9997M12.4652 10.836V13.3706M12.4652 10.836V8.30151" stroke="#6F6C90" stroke-width="1.0919" stroke-linecap="round" stroke-linejoin="round"/>
</g>
</g>
<defs>
<clipPath id="clip0_1241_39672">
<rect width="16" height="16" fill="white"/>
</clipPath>
</defs>
</svg>
