<svg width="16" height="16" viewBox="0 0 16 16" fill="none" xmlns="http://www.w3.org/2000/svg">
<g id="Collection">
<g id="style=stroke">
<g id="edit">
<path id="vector (Stroke)" fill-rule="evenodd" clip-rule="evenodd" d="M2.36205 10.9278L2.07919 13.5251C2.05436 13.7531 2.24686 13.9457 2.4749 13.9208L5.0721 13.638C5.31599 13.6114 5.54349 13.5023 5.71696 13.3288L13.6077 5.43811C14.0282 5.01757 14.0282 4.33573 13.6077 3.91519L12.0848 2.39228C11.6642 1.97173 10.9824 1.97173 10.5619 2.39228L2.67113 10.283C2.49766 10.4565 2.38861 10.684 2.36205 10.9278ZM12.8463 1.63082L14.3692 3.15373C15.2103 3.99482 15.2103 5.35848 14.3692 6.19957L6.47841 14.0903C6.13148 14.4373 5.67646 14.6553 5.18869 14.7084L2.59149 14.9913C1.67933 15.0906 0.909311 14.3206 1.00866 13.4085L1.29152 10.8113C1.34464 10.3235 1.56272 9.8685 1.90967 9.52153L9.80039 1.63082C10.6415 0.789728 12.0052 0.789728 12.8463 1.63082Z" fill="#6F6C8F"/>
<path id="vector (Stroke)_2" fill-rule="evenodd" clip-rule="evenodd" d="M13.6075 3.91519L12.0846 2.39228C11.664 1.97173 10.9822 1.97173 10.5617 2.39228L9.6479 3.30602L12.6937 6.35186L13.6075 5.43811C14.028 5.01756 14.028 4.33573 13.6075 3.91519ZM12.6937 7.87479L8.125 3.30602L9.80017 1.63082C10.6413 0.789728 12.0049 0.789728 12.846 1.63082L14.369 3.15373C15.2101 3.99482 15.2101 5.35849 14.369 6.19957L12.6937 7.87479Z" fill="#6F6C8F"/>
</g>
</g>
</g>
</svg>
