<svg width="46" height="46" viewBox="0 0 46 46" fill="none" xmlns="http://www.w3.org/2000/svg">
<g id="v2-stacked-bar-chart-color" clip-path="url(#clip0_1232_36724)">
<path id="Vector" d="M5.52002 0.000310898L5.52002 5.75031L0.958353 5.7503C0.429097 5.7503 1.97946e-05 5.32125 1.98177e-05 4.79197L1.99853e-05 0.958644C2.00084e-05 0.429372 0.429098 0.000310675 0.958353 0.000310698L5.52002 0.000310898Z" fill="#00D2AA"/>
<path id="Vector_2" d="M21.16 13.4173L21.16 19.1673L0.958368 19.1673C0.429111 19.1673 3.40997e-05 18.7382 3.41228e-05 18.209L3.42904e-05 14.3756C3.43135e-05 13.8464 0.429111 13.4173 0.958368 13.4173L21.16 13.4173Z" fill="#00D2AA"/>
<path id="Vector_3" d="M3.68005 26.8335L3.68005 32.5835L0.958385 32.5835C0.42913 32.5835 5.19811e-05 32.1544 5.20042e-05 31.6252L5.21718e-05 27.7918C5.21949e-05 27.2626 0.42913 26.8335 0.958386 26.8335L3.68005 26.8335Z" fill="#00D2AA"/>
<path id="Vector_4" d="M6.43982 40.2505L6.43982 46.0005L0.958153 46.0005C0.428898 46.0005 -0.000179523 45.5714 -0.0001795 45.0421L-0.000179333 41.2088C-0.00017931 40.6795 0.428898 40.2505 0.958154 40.2505L6.43982 40.2505Z" fill="#00D2AA"/>
<path id="Vector_5" d="M24.8017 0.00031181C25.3309 0.000311833 25.76 0.429373 25.76 0.958645L25.76 4.79197C25.76 5.32125 25.3309 5.75031 24.8017 5.75031L10.12 5.75031L10.12 0.000311168L24.8017 0.00031181Z" fill="#FFCC69"/>
<path id="Vector_6" d="M45.0417 13.4173C45.5709 13.4173 46 13.8464 46 14.3756L46 18.209C46 18.7382 45.5709 19.1673 45.0417 19.1673L36.8 19.1673L36.8 13.4173L45.0417 13.4173Z" fill="#FFCC69"/>
<path id="Vector_7" d="M10.0817 26.8335C10.611 26.8335 11.04 27.2626 11.04 27.7918L11.04 31.6252C11.04 32.1544 10.611 32.5835 10.0817 32.5835L5.52004 32.5835L5.52004 26.8335L10.0817 26.8335Z" fill="#FFCC69"/>
<path id="Vector_8" d="M21.1216 40.2505C21.651 40.2505 22.08 40.6795 22.08 41.2088L22.08 45.0421C22.08 45.5714 21.651 46.0005 21.1216 46.0005L11.96 46.0005L11.96 40.2505L21.1216 40.2505Z" fill="#FFCC69"/>
<path id="Vector_9" d="M10.12 0.000310898L10.12 5.75031L5.51999 5.7503L5.51999 0.000310697L10.12 0.000310898Z" fill="#00AAE1"/>
<path id="Vector_10" d="M36.8 13.4173L36.8 19.1673L21.16 19.1673L21.16 13.4173L36.8 13.4173Z" fill="#00AAE1"/>
<path id="Vector_11" d="M5.52002 26.8335L5.52002 32.5835L3.68002 32.5835L3.68002 26.8335L5.52002 26.8335Z" fill="#00AAE1"/>
<path id="Vector_12" d="M11.96 40.2505L11.96 46.0005L6.43996 46.0005L6.43996 40.2505L11.96 40.2505Z" fill="#00AAE1"/>
</g>
<defs>
<clipPath id="clip0_1232_36724">
<rect width="46" height="46" fill="white" transform="translate(46) rotate(90)"/>
</clipPath>
</defs>
</svg>
