<svg width="46" height="46" viewBox="0 0 46 46" fill="none" xmlns="http://www.w3.org/2000/svg">
<g id="v2-bar-chart-color" clip-path="url(#clip0_1232_36717)">
<path id="Vector" d="M25.76 4.79167L25.76 0.958333C25.76 0.42906 25.3309 -1.87548e-08 24.8017 -4.18901e-08L0.958344 -1.08412e-06C0.42907 -1.10725e-06 9.51799e-06 0.429059 9.49485e-06 0.958332L9.32729e-06 4.79167C9.30416e-06 5.32094 0.429069 5.75 0.958343 5.75L24.8017 5.75C25.3309 5.75 25.76 5.32094 25.76 4.79167Z" fill="#00D2AA"/>
<path id="Vector_2" d="M46 18.2086L46 14.3753C46 13.846 45.5709 13.417 45.0417 13.417L0.958332 13.417C0.429058 13.417 -1.87548e-08 13.846 -4.18901e-08 14.3753L-2.0945e-07 18.2086C-2.32586e-07 18.7379 0.429058 19.167 0.958332 19.167L45.0417 19.167C45.5709 19.167 46 18.7379 46 18.2086Z" fill="#00D2AA"/>
<path id="Vector_3" d="M11.04 31.6248L11.04 27.7915C11.04 27.2622 10.611 26.8332 10.0817 26.8332L0.958373 26.8332C0.4291 26.8332 4.00356e-05 27.2622 4.00124e-05 27.7915L3.98449e-05 31.6248C3.98217e-05 32.1541 0.4291 32.5832 0.958373 32.5832L10.0817 32.5832C10.611 32.5832 11.04 32.1541 11.04 31.6248Z" fill="#00D2AA"/>
<path id="Vector_4" d="M22.08 45.0418L22.08 41.2085C22.08 40.6792 21.6509 40.2502 21.1216 40.2502L0.958288 40.2502C0.429016 40.2502 -4.57951e-05 40.6792 -4.58183e-05 41.2085L-4.59858e-05 45.0418C-4.6009e-05 45.5711 0.429016 46.0002 0.958288 46.0002L21.1216 46.0002C21.6509 46.0002 22.08 45.5711 22.08 45.0418Z" fill="#00D2AA"/>
</g>
<defs>
<clipPath id="clip0_1232_36717">
<rect width="46" height="46" fill="white" transform="translate(46) rotate(90)"/>
</clipPath>
</defs>
</svg>
