<svg width="46" height="46" viewBox="0 0 46 46" fill="none" xmlns="http://www.w3.org/2000/svg">
<g id="v2-100p-stacked-bar-chart-color" clip-path="url(#clip0_1232_36739)">
<path id="Vector" d="M14.7198 -4.76837e-07L14.7198 5.75L0.958183 5.75C0.428928 5.75 -0.000149959 5.32093 -0.000149936 4.79167L-0.000149769 0.958332C-0.000149746 0.42906 0.428928 -1.10151e-06 0.958183 -1.07838e-06L14.7198 -4.76837e-07Z" fill="#00D2AA"/>
<path id="Vector_2" d="M25.7599 13.4169L25.7599 19.1669L0.958221 19.1669C0.428964 19.1669 -0.000112766 18.738 -0.000112743 18.2086L-0.000112575 14.3753C-0.000112552 13.846 0.428965 13.4169 0.958221 13.4169L25.7599 13.4169Z" fill="#00D2AA"/>
<path id="Vector_3" d="M17.0199 26.8332L17.0199 32.5832L0.958231 32.5832C0.428976 32.5832 -0.000103229 32.1541 -0.000103206 31.6249L-0.000103039 27.7915C-0.000103016 27.2623 0.428976 26.8332 0.958231 26.8332L17.0199 26.8332Z" fill="#00D2AA"/>
<path id="Vector_4" d="M10.1199 40.2501L10.1199 46.0001L0.958206 46.0001C0.42895 46.0001 -0.000127071 45.571 -0.000127048 45.0418L-0.000126881 41.2085C-0.000126857 40.6792 0.42895 40.2501 0.958206 40.2501L10.1199 40.2501Z" fill="#00D2AA"/>
<path id="Vector_5" d="M45.0417 9.11784e-07C45.5709 9.34919e-07 46 0.429061 46 0.958334L46 4.79167C46 5.32094 45.5709 5.75 45.0417 5.75L19.3199 5.75L19.32 -2.12548e-07L45.0417 9.11784e-07Z" fill="#FFCC69"/>
<path id="Vector_6" d="M45.0415 13.4169C45.5708 13.4169 45.9999 13.846 45.9999 14.3753L45.9999 18.2086C45.9999 18.738 45.5708 19.1669 45.0415 19.1669L36.7999 19.1669L36.7999 13.4169L45.0415 13.4169Z" fill="#FFCC69"/>
<path id="Vector_7" d="M45.0415 26.8332C45.5708 26.8332 45.9999 27.2623 45.9999 27.7915L45.9999 31.6249C45.9999 32.1541 45.5708 32.5832 45.0415 32.5832L23.4598 32.5832L23.4598 26.8332L45.0415 26.8332Z" fill="#FFCC69"/>
<path id="Vector_8" d="M45.0415 40.2501C45.5708 40.2501 45.9999 40.6792 45.9999 41.2085L45.9999 45.0418C45.9999 45.571 45.5708 46.0001 45.0415 46.0001L33.1198 46.0001L33.1198 40.2501L45.0415 40.2501Z" fill="#FFCC69"/>
<path id="Vector_9" d="M19.3198 0L19.3198 5.75L14.7198 5.75L14.7198 -2.01072e-07L19.3198 0Z" fill="#00AAE1"/>
<path id="Vector_10" d="M36.7999 13.4169L36.7999 19.1669L25.7599 19.1669L25.7599 13.4169L36.7999 13.4169Z" fill="#00AAE1"/>
<path id="Vector_11" d="M23.4598 26.8332L23.4598 32.5832L17.0198 32.5832L17.0198 26.8332L23.4598 26.8332Z" fill="#00AAE1"/>
<path id="Vector_12" d="M33.1199 40.2501L33.1199 46.0001L10.1199 46.0001L10.1199 40.2501L33.1199 40.2501Z" fill="#00AAE1"/>
</g>
<defs>
<clipPath id="clip0_1232_36739">
<rect width="46" height="46" fill="white" transform="translate(46) rotate(90)"/>
</clipPath>
</defs>
</svg>
