<svg width="20" height="21" viewBox="0 0 20 21" fill="none" xmlns="http://www.w3.org/2000/svg">
<g id="Companies">
<g id="Group">
<path id="Vector" d="M16.5006 17.0429V8.47587C16.5006 7.14343 15.7015 6.57105 15.1985 6.47721L12.0024 5.52949V4.47855C12.0024 4.29088 11.9038 4.19705 11.8051 4.09383C11.7065 4 11.5092 4 11.4007 4L4.70277 5.81099C4.70277 5.81099 3.49932 6.09249 3.49932 7.62198V17.0429H2.50302L3.50001 18C3.50001 18 3.88815 18 4.19394 18L16 18L16.5006 17.0429ZM10.9962 18.5C10.9962 18.5 4.50001 18 4.49562 18V7.62198C4.49562 6.95576 4.90006 6.7681 4.99871 6.7681L10.9962 5.15416V18.5ZM15.5 18.203C15 18.203 14 18.5708 12.0024 18.203V6.47721L15.09 7.45308L15.159 7.48123C15.159 7.48123 15.4648 7.60322 15.5141 8.47587V17.0429L15.5 18.203ZM7.2971 7.11528H6.3008V8.063H7.2971V7.11528ZM9.5955 7.11528H8.5992V8.063H9.5955V7.11528ZM7.2971 9.18901H6.3008V10.1367H7.2971V9.18901ZM9.5955 9.18901H8.5992V10.1367H9.5955V9.18901ZM7.2971 11.2627H6.3008V12.2105H7.2971V11.2627ZM9.5955 11.2627H8.5992V12.2105H9.5955V11.2627ZM7.2971 13.3271H6.3008V14.2842H7.2971V13.3271ZM9.5955 13.3271H8.5992V14.2842H9.5955V13.3271ZM7.2971 15.4008H6.3008V16.3485H7.2971V15.4008ZM9.5955 15.4008H8.5992V16.3485H9.5955V15.4008ZM13.3045 9.90214H14.3008V8.95442H13.3045V9.90214ZM13.3045 12.0885H14.3008V11.1408H13.3045V12.0885ZM13.3045 14.1716H14.3008V13.2239H13.3045V14.1716ZM13.3045 16.2828H14.3008V15.3351H13.3045V16.2828Z" fill="#556987"/>
</g>
</g>
</svg>
