<svg width="17" height="17" viewBox="0 0 17 17" fill="none" xmlns="http://www.w3.org/2000/svg">
<g id="1954539_call_contact_mobile_phone_telephone_icon 1">
<g id="layer_copy">
<path id="Vector" d="M13.9542 10.7538C13.6682 10.2827 12.9134 10.0747 12.489 9.99269C11.7144 9.84301 10.7161 9.85439 10.2322 10.2173C10.0729 10.3368 9.99355 10.5839 9.97503 11.0183C9.97258 11.0755 9.9715 11.1314 9.9712 11.1844C9.14904 10.8668 8.3901 10.3931 7.74235 9.79311L7.4579 9.51026C6.85532 8.86707 6.37938 8.11347 6.06021 7.29729C6.11357 7.29702 6.16991 7.29594 6.22763 7.29352C6.6636 7.27511 6.91152 7.19636 7.0315 7.03822C7.39491 6.55921 7.40807 5.57015 7.2599 4.80245C7.17777 4.37672 6.96874 3.61985 6.49209 3.3338C6.0179 3.0492 5.28498 3.11785 4.99187 3.16063C4.38716 3.24877 3.88408 3.46244 3.64608 3.7321C3.43868 3.96713 3.36583 4.63783 3.34415 4.91525C3.34356 4.92255 3.34336 4.93005 3.34348 4.93737C3.37916 7.19709 4.24842 9.35492 5.79107 11.0126C5.79314 11.0148 5.79524 11.0178 5.79737 11.02L6.22984 11.4518C6.23197 11.454 6.23413 11.4597 6.23638 11.4617C7.90309 12.9954 10.072 13.844 12.3438 13.9023C12.3449 13.9023 12.3462 13.9023 12.3474 13.9023C12.3534 13.9023 12.3594 13.8948 12.3654 13.8943C12.644 13.8728 13.3176 13.7931 13.5535 13.5873C13.825 13.3505 14.04 12.8498 14.1287 12.2479C14.1717 11.956 14.2409 11.2262 13.9542 10.7538ZM13.6669 12.1797C13.5971 12.6528 13.4282 13.0771 13.2468 13.2353C13.1655 13.3024 12.7436 13.3884 12.3401 13.4207C10.1886 13.3845 8.13494 12.5655 6.55582 11.1139L6.12982 10.6903C4.6703 9.12042 3.84699 7.07915 3.81052 4.94052C3.84276 4.54035 3.92907 4.12165 3.99621 4.04089C4.15578 3.8601 4.583 3.69198 5.05933 3.62254C5.55893 3.54968 6.01597 3.5924 6.25196 3.73406C6.47966 3.87072 6.6903 4.31399 6.80164 4.89092C6.94776 5.64808 6.88865 6.44387 6.66459 6.74954C6.57411 6.81308 6.16387 6.84713 5.77908 6.82411C5.7373 6.81358 5.69216 6.81428 5.64825 6.82893C5.60991 6.84174 5.57711 6.86356 5.55138 6.89122C5.51429 6.9293 5.4899 6.98013 5.48576 7.03731C5.4822 7.08659 5.49431 7.13334 5.51773 7.17287C5.84044 8.11624 6.35668 8.98994 7.02814 9.73263C7.03608 9.74532 7.04536 9.75743 7.05598 9.76875C7.12516 9.84248 7.19586 9.91484 7.2679 9.98563C7.33924 10.0574 7.41206 10.1278 7.48644 10.1968C7.49785 10.2073 7.51001 10.2165 7.52273 10.2244C8.26939 10.8918 9.14775 11.4051 10.096 11.7258C10.1355 11.7492 10.1822 11.7612 10.2315 11.7575C10.289 11.7533 10.3401 11.7285 10.3782 11.6909C10.3821 11.6872 10.3856 11.6832 10.3893 11.6793C10.3903 11.6781 10.3913 11.677 10.3924 11.6758C10.4129 11.6527 10.4297 11.6256 10.44 11.5944C10.4545 11.5505 10.4551 11.5055 10.4445 11.4639C10.4215 11.0823 10.4555 10.6757 10.5191 10.5859C10.829 10.3612 11.6345 10.3031 12.4005 10.4511C12.9762 10.5624 13.4187 10.7712 13.5551 10.9961C13.6972 11.2301 13.74 11.6837 13.6669 12.1797Z" stroke="#556987" stroke-width="0.5"/>
</g>
</g>
</svg>
