<svg width="16" height="16" viewBox="0 0 16 16" fill="none" xmlns="http://www.w3.org/2000/svg">
<g id="Copy" clip-path="url(#clip0_1241_39535)">
<path id="Vector" d="M12.9231 9.84615C11.8096 9.84615 10.8414 10.4468 10.3015 11.3346L5.92656 9.14708C6.07015 8.79179 6.15385 8.40615 6.15385 8C6.15385 7.59385 6.07015 7.20821 5.92656 6.85292L10.3015 4.66544C10.8423 5.55323 11.8096 6.15385 12.9231 6.15385C14.6191 6.15385 16 4.77292 16 3.07692C16 1.38092 14.6191 0 12.9231 0C11.2271 0 9.84615 1.38092 9.84615 3.07692C9.84615 3.22051 9.86913 3.35754 9.88882 3.49621L5.26359 5.80841C5.25703 5.81169 5.25292 5.81826 5.24718 5.82154C4.69005 5.26687 3.92287 4.92308 3.07692 4.92308C1.38092 4.92308 0 6.304 0 8C0 9.696 1.38092 11.0769 3.07692 11.0769C3.92287 11.0769 4.69005 10.7331 5.24718 10.1785C5.25374 10.1817 5.25703 10.1883 5.26359 10.1916L9.88882 12.5038C9.86995 12.6425 9.84615 12.7795 9.84615 12.9231C9.84615 14.6191 11.2271 16 12.9231 16C14.6191 16 16 14.6191 16 12.9231C16 11.2271 14.6191 9.84615 12.9231 9.84615ZM12.9231 1.23077C13.9405 1.23077 14.7692 2.05949 14.7692 3.07692C14.7692 4.09436 13.9405 4.92308 12.9231 4.92308C11.9056 4.92308 11.0769 4.09436 11.0769 3.07692C11.0769 2.05949 11.9056 1.23077 12.9231 1.23077ZM3.07692 9.84615C2.05949 9.84615 1.23077 9.01744 1.23077 8C1.23077 6.98256 2.05949 6.15385 3.07692 6.15385C4.09436 6.15385 4.92308 6.98256 4.92308 8C4.92308 9.01744 4.09436 9.84615 3.07692 9.84615ZM12.9231 14.7692C11.9056 14.7692 11.0769 13.9405 11.0769 12.9231C11.0769 11.9056 11.9056 11.0769 12.9231 11.0769C13.9405 11.0769 14.7692 11.9056 14.7692 12.9231C14.7692 13.9405 13.9405 14.7692 12.9231 14.7692Z" fill="#6F6C90"/>
</g>
<defs>
<clipPath id="clip0_1241_39535">
<rect width="16" height="16" fill="white"/>
</clipPath>
</defs>
</svg>
