<svg width="20" height="20" viewBox="0 0 20 20" fill="none" xmlns="http://www.w3.org/2000/svg">
<g id="Deals">
<g id="Group 252">
<path id="Vector" d="M12.55 2H7.45003C3.20003 2 1.50003 3.61653 1.50003 7.65786V12.5075C1.50003 15.5627 2.46903 17.2358 4.78103 17.8582C4.78103 17.8582 7.33474 18.35 10.0972 18.35C12.8597 18.35 15.1285 17.8825 15.219 17.8582C17.531 17.2358 18.5 15.5627 18.5 12.5075V7.65786C18.5 3.61653 16.8 2 12.55 2Z" stroke="#556987" stroke-width="1.30415" stroke-linecap="round" stroke-linejoin="round"/>
<path id="Vector_2" d="M13.4504 12.393C13.2342 13.5578 12.2189 14.2984 10.7762 14.4625V15.25C10.7762 15.6641 10.4293 16 9.99987 16C9.57043 16 9.22163 15.6648 9.22163 15.25V14.4306C9.21086 14.4291 9.20133 14.4299 9.19052 14.4283C8.55438 14.3401 7.88642 14.119 7.2974 13.9237L7.02949 13.8355C6.6234 13.7031 6.40479 13.2766 6.54227 12.8852C6.67975 12.4937 7.1223 12.2821 7.52745 12.4145L7.80216 12.505C8.32657 12.6786 8.9202 12.8755 9.41522 12.944C10.559 13.1069 11.7727 12.9242 11.9195 12.145C12.0455 11.4758 11.6484 11.2101 9.79341 10.7223L9.42809 10.6258C8.36155 10.3375 6.14295 9.73984 6.54907 7.58594C6.76403 6.43984 7.77496 5.69875 9.22163 5.53539V4.75C9.22163 4.33586 9.5697 4 9.99938 4C10.4291 4 10.7762 4.33586 10.7762 4.75V5.56914C10.7869 5.57061 10.7966 5.57019 10.8073 5.57175C11.218 5.63107 11.687 5.7468 12.2821 5.9362C12.6904 6.06583 12.9122 6.48956 12.7779 6.88331C12.6435 7.27636 12.2025 7.48941 11.7963 7.36097C11.2931 7.20131 10.8947 7.10128 10.578 7.05581C9.44024 6.89219 8.22504 7.075 8.07785 7.85547C7.97073 8.425 8.19322 8.73437 9.8483 9.17969L10.2027 9.27381C11.6579 9.65781 13.8585 10.2367 13.4504 12.393Z" fill="#556987"/>
</g>
</g>
</svg>
