<svg width="12" height="15" viewBox="0 0 12 15" fill="none" xmlns="http://www.w3.org/2000/svg">
<path id="Vector" d="M9.52616 0H4.62589H4.24618L3.97786 0.268294L0.268294 3.97809L0 4.24638V4.62592V12.2742C0 13.6384 1.10982 14.7484 2.47427 14.7484H9.52616C10.8902 14.7484 12 13.6384 12 12.2742V2.47427C12 1.10982 10.8902 0 9.52616 0ZM11.0841 12.2741C11.0841 13.1348 10.3866 13.8323 9.52616 13.8323H2.47427C1.61345 13.8323 0.915955 13.1348 0.915955 12.2741V4.62589H3.32743C4.04425 4.62589 4.62589 4.04466 4.62589 3.32763V0.916128H9.52616C10.3866 0.916128 11.0841 1.61362 11.0841 2.47427V12.2741Z" fill="#6F6C90"/>
</svg>
