<svg width="22" height="22" viewBox="0 0 22 22" fill="none" xmlns="http://www.w3.org/2000/svg">
<g id="Interface / Filter">
<path id="Vector" d="M20.7017 3.0407C20.7017 2.35679 20.7012 2.01458 20.5681 1.75336C20.4511 1.52359 20.2649 1.33691 20.0352 1.21982C19.774 1.08673 19.4313 1.08673 18.7474 1.08673H3.1166C2.43269 1.08673 2.09107 1.08673 1.82985 1.21982C1.60008 1.33691 1.4134 1.52359 1.29632 1.75336C1.16322 2.01458 1.16322 2.35679 1.16322 3.0407V3.94101C1.16322 4.23969 1.16322 4.38914 1.19696 4.52968C1.22688 4.65429 1.27634 4.77332 1.34329 4.88257C1.41879 5.00576 1.52458 5.11155 1.73564 5.32262L7.91804 11.505C8.12922 11.7162 8.23425 11.8212 8.30977 11.9445C8.37673 12.0537 8.42685 12.1731 8.45677 12.2978C8.49016 12.4369 8.49016 12.5845 8.49016 12.8772V18.6848C8.49016 19.7316 8.49016 20.2553 8.71058 20.5705C8.90315 20.8458 9.20014 21.0294 9.53242 21.0785C9.91293 21.1347 10.3814 20.9008 11.3176 20.4328L12.2945 19.9443C12.6867 19.7483 12.8822 19.6499 13.0254 19.5036C13.152 19.3743 13.249 19.2191 13.308 19.048C13.3748 18.8544 13.3748 18.6347 13.3748 18.1963V12.8863C13.3748 12.5876 13.3748 12.4384 13.4085 12.2978C13.4384 12.1731 13.4879 12.0537 13.5549 11.9445C13.6299 11.822 13.7347 11.7173 13.943 11.5089L13.9473 11.505L20.1296 5.32262C20.3407 5.11142 20.4458 5.00581 20.5214 4.88257C20.5883 4.77332 20.6385 4.65429 20.6684 4.52968C20.7017 4.39058 20.7017 4.24274 20.7017 3.9501V3.0407Z" stroke="#68738D" stroke-width="1.65" stroke-linecap="round" stroke-linejoin="round"/>
</g>
</svg>
