<svg width="22" height="19" viewBox="0 0 22 19" fill="none" xmlns="http://www.w3.org/2000/svg">
<g id="Group 35562">
<path id="Vector" d="M2.29211 10.5526H21.0615C21.3104 10.5526 21.5491 10.4537 21.7251 10.2777C21.9011 10.1017 21.9999 9.86304 21.9999 9.61414C21.9999 9.36525 21.9011 9.12654 21.7251 8.95055C21.5491 8.77455 21.3104 8.67568 21.0615 8.67568H2.29211C2.04321 8.67568 1.80451 8.77455 1.62851 8.95055C1.45251 9.12654 1.35364 9.36525 1.35364 9.61414C1.35364 9.86304 1.45251 10.1017 1.62851 10.2777C1.80451 10.4537 2.04321 10.5526 2.29211 10.5526Z" fill="#2A3342"/>
<path id="Vector_2" d="M2.68071 9.61413L10.4644 1.83235C10.6406 1.65613 10.7396 1.41713 10.7396 1.16792C10.7396 0.918704 10.6406 0.679699 10.4644 0.50348C10.2882 0.32726 10.0491 0.228262 9.79994 0.228262C9.55072 0.228262 9.31172 0.32726 9.1355 0.50348L0.689284 8.9497C0.601888 9.03687 0.532549 9.14043 0.485238 9.25445C0.437927 9.36846 0.413574 9.49069 0.413574 9.61413C0.413574 9.73757 0.437927 9.8598 0.485238 9.97381C0.532549 10.0878 0.601888 10.1914 0.689284 10.2786L9.1355 18.7248C9.31172 18.901 9.55072 19 9.79994 19C10.0491 19 10.2882 18.901 10.4644 18.7248C10.6406 18.5486 10.7396 18.3096 10.7396 18.0603C10.7396 17.8111 10.6406 17.5721 10.4644 17.3959L2.68071 9.61413Z" fill="#2A3342"/>
</g>
</svg>
