<svg width="16" height="16" viewBox="0 0 16 16" fill="none" xmlns="http://www.w3.org/2000/svg">
<g id="Private">
<path id="Vector" d="M13.0256 6.74359H12.8462V5.84615C12.8462 3.17395 10.6722 1 8 1C5.3278 1 3.15385 3.17395 3.15385 5.84615V6.74359H2.97436C1.88523 6.74359 1 7.62882 1 8.71795V10.8718C1 11.9609 1.88523 12.8462 2.97436 12.8462H4.41026C5.10308 12.8462 5.66667 12.2826 5.66667 11.5897V8C5.66667 7.30718 5.10308 6.74359 4.41026 6.74359H4.23077V5.84615C4.23077 3.76769 5.92154 2.07692 8 2.07692C10.0785 2.07692 11.7692 3.76769 11.7692 5.84615V6.74359H11.5897C10.8969 6.74359 10.3333 7.30718 10.3333 8V11.5897C10.3333 12.2826 10.8969 12.8462 11.5897 12.8462H11.7692V13.0256C11.7692 13.5203 11.3665 13.9231 10.8718 13.9231H8C7.70277 13.9231 7.46154 14.1643 7.46154 14.4615C7.46154 14.7588 7.70277 15 8 15H10.8718C11.9609 15 12.8462 14.1148 12.8462 13.0256V12.8462H13.0256C14.1148 12.8462 15 11.9609 15 10.8718V8.71795C15 7.62882 14.1148 6.74359 13.0256 6.74359ZM4.41026 7.82051C4.50933 7.82051 4.58974 7.90092 4.58974 8V11.5897C4.58974 11.6888 4.50933 11.7692 4.41026 11.7692H2.97436C2.47969 11.7692 2.07692 11.3665 2.07692 10.8718V8.71795C2.07692 8.22328 2.47969 7.82051 2.97436 7.82051H4.41026ZM13.9231 10.8718C13.9231 11.3665 13.5203 11.7692 13.0256 11.7692H11.5897C11.4907 11.7692 11.4103 11.6888 11.4103 11.5897V8C11.4103 7.90092 11.4907 7.82051 11.5897 7.82051H13.0256C13.5203 7.82051 13.9231 8.22328 13.9231 8.71795V10.8718Z" fill="#4296FF"/>
</g>
</svg>
