<svg width="20" height="21" viewBox="0 0 20 21" fill="none" xmlns="http://www.w3.org/2000/svg">
<g id="Items" clip-path="url(#clip0_996_27217)">
<path id="Vector" d="M9.29901 1.59746L9.29902 1.59746C9.73426 1.35262 10.2657 1.35262 10.701 1.59746L10.701 1.59746L17.5094 5.42719L17.7621 4.97798L17.5094 5.4272C17.9596 5.68045 18.2383 6.15684 18.2383 6.67342V14.2061C18.2383 14.6426 18.0074 15.0467 17.6313 15.2684L10.6007 19.4117L10.6007 19.4117C10.2301 19.6302 9.76992 19.6302 9.39929 19.4117L9.39924 19.4117L2.36876 15.2684C2.36876 15.2684 2.36875 15.2684 2.36874 15.2684C1.99258 15.0466 1.76173 14.6426 1.76173 14.2061V6.67342C1.76173 6.15685 2.04035 5.68045 2.49059 5.42719L9.29901 1.59746Z" stroke="#556987" stroke-width="1.03079"/>
<path id="Vector_2" d="M10.3434 9.80811L18.3434 5.80811M10.3434 9.80811L10.1719 19.3081M10.3434 9.80811L10.1731 19.2444M10.3434 9.80811L1.84344 5.80811" stroke="#556987" stroke-width="1.1"/>
</g>
<defs>
<clipPath id="clip0_996_27217">
<rect width="20" height="20" fill="white" transform="translate(0 0.0908203)"/>
</clipPath>
</defs>
</svg>
