<svg width="20" height="20" viewBox="0 0 20 20" fill="none" xmlns="http://www.w3.org/2000/svg">
<g id="Leads">
<path id="Vector" d="M4.83443 18.2002L4.83443 18.2002L4.83177 18.1994C4.75294 18.1762 4.68928 18.0936 4.69291 17.9956C4.88141 15.7953 7.15224 13.9511 10.0007 13.9511C12.8512 13.9511 15.1169 15.7901 15.3092 18.003C15.3168 18.096 15.2648 18.1722 15.173 18.1984L15.173 18.1984L15.1671 18.2002C14.4458 18.4173 13.5745 18.5234 12.5007 18.5234H7.50077C6.42702 18.5234 5.55573 18.4173 4.83443 18.2002ZM5.18173 17.4341L5.05705 17.8857L5.51676 17.9763C6.1023 18.0916 6.75692 18.1428 7.50077 18.1428H12.5007C13.2446 18.1428 13.8992 18.0916 14.4848 17.9763L14.9445 17.8857L14.8198 17.4341C14.3108 15.5903 12.2656 14.3316 10.0007 14.3316C7.73589 14.3316 5.69068 15.5903 5.18173 17.4341Z" fill="#B8B8B8" stroke="#556987" stroke-width="0.869436"/>
<path id="Vector_2" d="M12.7168 1.66675H7.61684C3.36684 1.66675 1.66684 3.33341 1.66684 7.50008V12.5001C1.66684 15.6501 2.63584 17.3751 4.94784 18.0167C5.13484 15.8501 7.40434 14.1417 10.1668 14.1417C12.9293 14.1417 15.1988 15.8501 15.3858 18.0167C17.6978 17.3751 18.6668 15.6501 18.6668 12.5001V7.50008C18.6668 3.33341 16.9668 1.66675 12.7168 1.66675ZM10.1668 11.8084C8.48384 11.8084 7.12384 10.4667 7.12384 8.81675C7.12384 7.16676 8.48384 5.83341 10.1668 5.83341C11.8498 5.83341 13.2098 7.16676 13.2098 8.81675C13.2098 10.4667 11.8498 11.8084 10.1668 11.8084Z" stroke="#556987" stroke-width="1.30415" stroke-linecap="round" stroke-linejoin="round"/>
<path id="Vector_3" d="M10.0011 11.9988C8.25082 11.9988 6.82748 10.5697 6.82748 8.81683C6.82748 7.06526 8.24952 5.64321 10.0011 5.64321C11.7527 5.64321 13.1747 7.06527 13.1747 8.81683C13.1747 10.5697 11.7514 11.9988 10.0011 11.9988ZM10.0011 6.02378C8.46098 6.02378 7.20804 7.27676 7.20804 8.81683C7.20804 10.3642 8.45999 11.6182 10.0011 11.6182C11.5422 11.6182 12.7941 10.3643 12.7941 8.81683C12.7941 7.27676 11.5412 6.02378 10.0011 6.02378Z" fill="#B8B8B8" stroke="#556987" stroke-width="0.869436"/>
</g>
</svg>
