<svg width="46" height="29" viewBox="0 0 46 29" fill="none" xmlns="http://www.w3.org/2000/svg">
<g id="v2-smooth-line-chart-color">
<path id="Vector" d="M1.21216 15.4375L6.36963 16.6811C8.43487 17.1791 10.6615 16.6263 12.0522 15.2703L14.9604 12.4347C16.5483 10.8865 19.194 10.4077 21.4199 11.2657L26.191 13.1048C28.3456 13.9352 30.9033 13.5154 32.5098 12.0676L44.7909 1.00006" stroke="#FFCC69" stroke-width="2" stroke-linecap="round" stroke-linejoin="round"/>
<path id="Vector_2" d="M44.7894 12.8125L38.5076 15.0365C37.4284 15.4185 36.5274 16.0785 35.9392 16.9179L34.1335 19.4945C32.8128 21.3789 30.0482 22.2119 27.569 21.4723L27.4084 21.4244C25.1919 20.7632 22.7124 21.3713 21.2917 22.9246C18.8622 25.581 13.8893 25.1668 12.1505 22.1633L8.47369 15.8125L1.21057 3.25003" stroke="#00D2AA" stroke-width="2" stroke-linecap="round" stroke-linejoin="round"/>
</g>
</svg>
