<svg width="16" height="16" viewBox="0 0 16 16" fill="none" xmlns="http://www.w3.org/2000/svg">
<g id="Open" clip-path="url(#clip0_1241_39524)">
<g id="Group 39231">
<path id="Vector" d="M7.22183 1.17371H5.8392C2.38263 1.17371 1 2.55634 1 6.01291V10.1608C1 13.6174 2.38263 15 5.8392 15H9.98709C13.4437 15 14.8263 13.6174 14.8263 10.1608V8.77817" stroke="#6F6C90" stroke-width="1.03697" stroke-linecap="round" stroke-linejoin="round"/>
<path id="Vector_2" d="M10.7059 1.87882L5.25832 7.32637C5.05093 7.53377 4.84353 7.94164 4.80205 8.23891L4.50479 10.3198C4.39418 11.0733 4.92649 11.5987 5.68002 11.495L7.76088 11.1977C8.05123 11.1563 8.45911 10.9489 8.67341 10.7415L14.121 5.29391C15.0612 4.35373 15.5036 3.26145 14.121 1.87882C12.7383 0.49619 11.6461 0.938631 10.7059 1.87882Z" stroke="#6F6C90" stroke-width="1.03697" stroke-miterlimit="10" stroke-linecap="round" stroke-linejoin="round"/>
<path id="Vector_3" d="M9.9248 2.66003C10.388 4.31228 11.6807 5.60503 13.3399 6.07513" stroke="#6F6C90" stroke-width="1.03697" stroke-miterlimit="10" stroke-linecap="round" stroke-linejoin="round"/>
</g>
</g>
<defs>
<clipPath id="clip0_1241_39524">
<rect width="16" height="16" fill="white"/>
</clipPath>
</defs>
</svg>
