<svg width="16" height="16" viewBox="0 0 16 16" fill="none" xmlns="http://www.w3.org/2000/svg">
<g id="Private">
<g id="Group 39230">
<g id="Group 39229">
<line id="Line 1" x1="10.4081" y1="11.2329" x2="13.0004" y2="14.2261" stroke="#6F6C90" stroke-width="0.816113"/>
<g id="Ellipse 103">
<mask id="path-2-inside-1_1241_39682" fill="white">
<path d="M12.4418 13.4102C13.7797 12.3118 14.6631 10.7567 14.9215 9.04512C15.18 7.33354 14.7951 5.5869 13.8412 4.14247C12.8873 2.69804 11.432 1.65827 9.75641 1.22394C8.08079 0.789605 6.30368 0.991518 4.76822 1.79069C3.23275 2.58985 2.04785 3.92959 1.4423 5.55121C0.836754 7.17282 0.853515 8.96129 1.48935 10.5713C2.12518 12.1812 3.33499 13.4985 4.88516 14.2688C6.43533 15.039 8.21592 15.2076 9.88309 14.742L9.51932 13.4396C8.17421 13.8153 6.73759 13.6793 5.48688 13.0578C4.23616 12.4363 3.26006 11.3735 2.74706 10.0746C2.23405 8.77559 2.22053 7.33261 2.7091 6.02426C3.19767 4.7159 4.15368 3.63497 5.39252 2.99018C6.63137 2.3454 8.06519 2.18249 9.41711 2.53292C10.769 2.88335 11.9432 3.72225 12.7128 4.88765C13.4824 6.05305 13.793 7.46228 13.5845 8.84323C13.3759 10.2242 12.6632 11.4789 11.5837 12.3651L12.4418 13.4102Z"/>
</mask>
<path d="M12.4418 13.4102C13.7797 12.3118 14.6631 10.7567 14.9215 9.04512C15.18 7.33354 14.7951 5.5869 13.8412 4.14247C12.8873 2.69804 11.432 1.65827 9.75641 1.22394C8.08079 0.789605 6.30368 0.991518 4.76822 1.79069C3.23275 2.58985 2.04785 3.92959 1.4423 5.55121C0.836754 7.17282 0.853515 8.96129 1.48935 10.5713C2.12518 12.1812 3.33499 13.4985 4.88516 14.2688C6.43533 15.039 8.21592 15.2076 9.88309 14.742L9.51932 13.4396C8.17421 13.8153 6.73759 13.6793 5.48688 13.0578C4.23616 12.4363 3.26006 11.3735 2.74706 10.0746C2.23405 8.77559 2.22053 7.33261 2.7091 6.02426C3.19767 4.7159 4.15368 3.63497 5.39252 2.99018C6.63137 2.3454 8.06519 2.18249 9.41711 2.53292C10.769 2.88335 11.9432 3.72225 12.7128 4.88765C13.4824 6.05305 13.793 7.46228 13.5845 8.84323C13.3759 10.2242 12.6632 11.4789 11.5837 12.3651L12.4418 13.4102Z" fill="#6F6C90" stroke="#6F6C90" stroke-width="1.63223" mask="url(#path-2-inside-1_1241_39682)"/>
</g>
</g>
</g>
</g>
</svg>
