<svg width="20" height="21" viewBox="0 0 20 21" fill="none" xmlns="http://www.w3.org/2000/svg">
<g id="Quotes">
<g id="Group 252">
<path id="Vector" d="M12.55 2.71729H7.44997C3.19997 2.71729 1.49997 4.33382 1.49997 8.37515V13.2247C1.49997 16.28 2.46897 17.9531 4.78097 18.5755C4.78097 18.5755 7.33468 19.0673 10.0972 19.0673C12.8597 19.0673 15.1285 18.5998 15.219 18.5755C17.531 17.9531 18.5 16.28 18.5 13.2247V8.37515C18.5 4.33382 16.8 2.71729 12.55 2.71729Z" stroke="#556987" stroke-width="1.44444" stroke-linecap="round" stroke-linejoin="round"/>
</g>
<g id="Group 250">
<path id="Vector_2" d="M7.87301 14.7196H6.62497C5.72873 14.7196 5 13.9909 5 13.0947V10.8582C5 10.5148 5.28479 10.23 5.62821 10.23H7.87301C8.78601 10.23 9.49798 10.942 9.49798 11.855V13.103C9.48961 13.9992 8.77763 14.7196 7.87301 14.7196ZM6.25642 11.478V13.0863C6.25642 13.2873 6.42394 13.4548 6.62497 13.4548H7.87301C8.14105 13.4548 8.24156 13.2538 8.24156 13.0863V11.8382C8.24156 11.6707 8.14943 11.4697 7.87301 11.4697H6.25642V11.478Z" fill="#556987"/>
<path id="Vector_3" d="M5.62821 11.478C5.28479 11.478 5 11.1932 5 10.8498C5 8.26994 5.5612 7.69202 7.06053 6.80415C7.35369 6.62825 7.74737 6.72877 7.92327 7.02194C8.09917 7.3151 7.99866 7.70875 7.70549 7.88465C6.56634 8.56312 6.25642 8.739 6.25642 10.8498C6.25642 11.2016 5.97163 11.478 5.62821 11.478Z" fill="#556987"/>
<path id="Vector_4" d="M13.0075 14.7196H11.7595C10.8632 14.7196 10.1345 13.9909 10.1345 13.0947V10.8582C10.1345 10.5148 10.4193 10.23 10.7627 10.23H13.0075C13.9205 10.23 14.6325 10.942 14.6325 11.855V13.103C14.6325 13.9992 13.9205 14.7196 13.0075 14.7196ZM11.3993 11.478V13.0863C11.3993 13.2873 11.5668 13.4548 11.7678 13.4548H13.0159C13.2839 13.4548 13.3844 13.2538 13.3844 13.0863V11.8382C13.3844 11.6707 13.2923 11.4697 13.0159 11.4697H11.3993V11.478Z" fill="#556987"/>
<path id="Vector_5" d="M10.7713 11.478C10.4279 11.478 10.1431 11.1932 10.1431 10.8498C10.1431 8.26994 10.7043 7.69202 12.2036 6.80415C12.5052 6.62825 12.8905 6.72877 13.0664 7.02194C13.2423 7.3151 13.1418 7.70875 12.8486 7.88465C11.7094 8.56312 11.3995 8.739 11.3995 10.8498C11.3995 11.2016 11.1147 11.478 10.7713 11.478Z" fill="#556987"/>
</g>
</g>
</svg>
