<svg width="20" height="21" viewBox="0 0 20 21" fill="none" xmlns="http://www.w3.org/2000/svg">
<g id="Settings">
<g id="vuesax/outline/setting-2">
<g id="Vector">
<path d="M9.9916 13.4301C8.26019 13.4301 6.85499 11.9464 6.85499 10.1183C6.85499 8.29022 8.26019 6.80655 9.9916 6.80655C11.723 6.80655 13.1282 8.29022 13.1282 10.1183C13.1282 11.9464 11.723 13.4301 9.9916 13.4301ZM9.9916 8.13125C8.95443 8.13125 8.10963 9.02322 8.10963 10.1183C8.10963 11.2134 8.95443 12.1054 9.9916 12.1054C11.0288 12.1054 11.8736 11.2134 11.8736 10.1183C11.8736 9.02322 11.0288 8.13125 9.9916 8.13125Z" fill="#556987"/>
<path d="M12.6765 19.1175C12.5009 19.1175 12.3252 19.091 12.1496 19.0468C11.631 18.8967 11.1961 18.5523 10.92 18.0666L10.8197 17.8899C10.3262 16.9891 9.64867 16.9891 9.15517 17.8899L9.06317 18.0577C8.78714 18.5523 8.3522 18.9055 7.83361 19.0468C7.30666 19.197 6.76298 19.1175 6.30294 18.8261L4.86428 17.9517C4.35406 17.6427 3.98603 17.1393 3.82711 16.5299C3.67655 15.9205 3.75183 15.2935 4.04458 14.7548C4.28714 14.3044 4.35406 13.8981 4.21187 13.642C4.06967 13.3859 3.71001 13.2358 3.21651 13.2358C1.99532 13.2358 0.999969 12.1849 0.999969 10.8955V9.34115C0.999969 8.05177 1.99532 7.00084 3.21651 7.00084C3.71001 7.00084 4.06967 6.85071 4.21187 6.59459C4.35406 6.33849 4.29551 5.93224 4.04458 5.48184C3.75183 4.94313 3.67655 4.30727 3.82711 3.70673C3.97766 3.09737 4.34569 2.59398 4.86428 2.28488L6.31131 1.41057C7.25647 0.818872 8.50276 1.1633 9.07153 2.1789L9.1719 2.35553C9.6654 3.25633 10.3429 3.25633 10.8364 2.35553L10.9284 2.18774C11.4972 1.1633 12.7435 0.818872 13.697 1.41941L15.1357 2.29371C15.6459 2.60281 16.0139 3.1062 16.1728 3.71556C16.3234 4.32493 16.2481 4.95196 15.9554 5.49067C15.7128 5.94107 15.6459 6.34732 15.7881 6.60343C15.9303 6.85954 16.2899 7.00967 16.7834 7.00967C18.0046 7.00967 19 8.0606 19 9.34999V10.9043C19 12.1937 18.0046 13.2446 16.7834 13.2446C16.2899 13.2446 15.9303 13.3948 15.7881 13.6509C15.6459 13.907 15.7044 14.3132 15.9554 14.7636C16.2481 15.3023 16.3318 15.9382 16.1728 16.5387C16.0223 17.1481 15.6542 17.6515 15.1357 17.9606L13.6886 18.8349C13.3708 19.0203 13.0279 19.1175 12.6765 19.1175ZM9.9916 15.8499C10.736 15.8499 11.4303 16.3444 11.907 17.2187L11.999 17.3865C12.0994 17.572 12.2667 17.7045 12.4674 17.7575C12.6682 17.8104 12.8689 17.784 13.0362 17.678L14.4832 16.7948C14.7007 16.6624 14.868 16.4416 14.9349 16.1766C15.0018 15.9117 14.9684 15.6379 14.8429 15.4083C14.3661 14.5428 14.3076 13.6509 14.6756 12.9709C15.0437 12.2908 15.8048 11.9023 16.7583 11.9023C17.2936 11.9023 17.7202 11.4519 17.7202 10.8866V9.33232C17.7202 8.77595 17.2936 8.31671 16.7583 8.31671C15.8048 8.31671 15.0437 7.92813 14.6756 7.24812C14.3076 6.5681 14.3661 5.67613 14.8429 4.81066C14.9684 4.58104 15.0018 4.30727 14.9349 4.04233C14.868 3.77738 14.7091 3.56543 14.4916 3.42413L13.0446 2.54982C12.6849 2.32021 12.2081 2.45268 11.9907 2.84126L11.8987 3.00905C11.4219 3.88336 10.7277 4.37792 9.98324 4.37792C9.23882 4.37792 8.54458 3.88336 8.06781 3.00905L7.97581 2.83243C7.7667 2.46151 7.2983 2.32904 6.93863 2.54982L5.4916 3.43296C5.27413 3.56543 5.10685 3.78622 5.03993 4.05116C4.97302 4.3161 5.00647 4.58987 5.13194 4.81949C5.60871 5.68496 5.66726 6.57693 5.29923 7.25695C4.9312 7.93696 4.17004 8.32555 3.21651 8.32555C2.6812 8.32555 2.25462 8.77595 2.25462 9.34115V10.8955C2.25462 11.4519 2.6812 11.9111 3.21651 11.9111C4.17004 11.9111 4.9312 12.2997 5.29923 12.9797C5.66726 13.6597 5.60871 14.5517 5.13194 15.4171C5.00647 15.6468 4.97302 15.9205 5.03993 16.1855C5.10685 16.4504 5.26577 16.6624 5.48324 16.8037L6.93027 17.678C7.10592 17.7928 7.31502 17.8193 7.5074 17.7663C7.70815 17.7133 7.87543 17.572 7.98417 17.3865L8.07618 17.2187C8.55294 16.3533 9.24718 15.8499 9.9916 15.8499Z" fill="#556987"/>
</g>
</g>
</g>
</svg>
