<svg width="26" height="26" viewBox="0 0 26 26" fill="none" xmlns="http://www.w3.org/2000/svg">
<g id="settings-svgrepo-com 1" clip-path="url(#clip0_1230_36217)">
<path id="Path 39" d="M13.75 25.398H11.6725C10.9126 25.3971 10.1842 25.095 9.64671 24.5579C9.10927 24.0207 8.80677 23.2924 8.80555 22.5325V21.5692C8.80531 21.5198 8.79228 21.4713 8.76774 21.4284C8.7432 21.3855 8.70798 21.3497 8.6655 21.3245L7.62521 20.7182C7.58235 20.6936 7.53377 20.6807 7.48437 20.6807C7.43497 20.6807 7.38643 20.6936 7.34357 20.7182L6.5141 21.1967C6.18854 21.3865 5.82848 21.5095 5.45489 21.5586C5.08129 21.6078 4.70164 21.5821 4.33809 21.483C3.97353 21.3863 3.63173 21.2184 3.33246 20.9888C3.03319 20.7593 2.78239 20.4727 2.59452 20.1457L1.54958 18.3298C1.1727 17.6718 1.07126 16.8915 1.26728 16.159C1.46331 15.4265 1.94094 14.8012 2.59607 14.4194L3.4394 13.9331C3.48238 13.9079 3.51803 13.872 3.54286 13.8288C3.56769 13.7856 3.58081 13.7367 3.58094 13.6869V12.4865C3.58081 12.4367 3.56769 12.3878 3.54286 12.3447C3.51803 12.3015 3.48238 12.2655 3.4394 12.2404L2.59762 11.7541C1.94192 11.3728 1.46368 10.7476 1.26733 10.0149C1.07098 9.28231 1.17242 8.50175 1.54958 7.84367L2.59452 6.02778C2.78239 5.70074 3.03319 5.41418 3.33246 5.18464C3.63173 4.95511 3.97353 4.78717 4.33809 4.69049C4.70166 4.59096 5.08147 4.56513 5.45517 4.61455C5.82886 4.66397 6.1889 4.78762 6.5141 4.97824L7.34202 5.45529C7.38491 5.48061 7.43382 5.49399 7.48362 5.49399C7.53342 5.49399 7.58232 5.48061 7.62521 5.45529L8.6655 4.84899C8.70798 4.82376 8.7432 4.78794 8.76774 4.74506C8.79228 4.70219 8.80531 4.65372 8.80555 4.60431V3.64095C8.80677 2.8811 9.10927 2.15275 9.64671 1.6156C10.1842 1.07844 10.9126 0.776327 11.6725 0.775513H13.7547C14.5148 0.775919 15.2437 1.07784 15.7815 1.61503C16.3192 2.15223 16.6219 2.88083 16.6232 3.64095V4.60431C16.6234 4.65354 16.6362 4.7019 16.6605 4.74474C16.6847 4.78757 16.7196 4.82346 16.7617 4.84899L17.8035 5.45529C17.8461 5.48063 17.8947 5.49404 17.9443 5.49404C17.9939 5.49404 18.0425 5.48063 18.0851 5.45529L18.9131 4.97674C19.2387 4.78649 19.5991 4.66314 19.973 4.61399C20.3469 4.56484 20.7269 4.59087 21.0906 4.69049C21.4551 4.78695 21.7967 4.95484 22.0957 5.18441C22.3948 5.41398 22.6453 5.70063 22.8326 6.02778L23.8775 7.84367C24.2548 8.50156 24.3565 9.282 24.1605 10.0146C23.9644 10.7472 23.4865 11.3725 22.8311 11.7541L21.9878 12.2404C21.9448 12.2655 21.9091 12.3015 21.8843 12.3447C21.8595 12.3878 21.8463 12.4367 21.8462 12.4865V13.6869C21.8463 13.7367 21.8595 13.7856 21.8843 13.8288C21.9091 13.872 21.9448 13.9079 21.9878 13.9331L22.8295 14.4194C23.4855 14.8004 23.9641 15.4256 24.1604 16.1583C24.3568 16.8911 24.2551 17.6718 23.8775 18.3298L22.8326 20.1457C22.6453 20.4728 22.3948 20.7595 22.0957 20.9891C21.7967 21.2186 21.4551 21.3865 21.0906 21.483C20.7268 21.5823 20.3467 21.608 19.9728 21.5586C19.5989 21.5092 19.2386 21.3857 18.9131 21.1952L18.0866 20.7182C18.0435 20.6936 17.9947 20.6807 17.9451 20.6807C17.8954 20.6807 17.8466 20.6936 17.8035 20.7182L16.7617 21.3245C16.7196 21.35 16.6847 21.3859 16.6605 21.4287C16.6362 21.4716 16.6234 21.5199 16.6232 21.5692V22.5325C16.6219 23.2934 16.3186 24.0228 15.7798 24.5601C15.2411 25.0974 14.5109 25.3988 13.75 25.398ZM7.47747 19.1454C7.8018 19.1444 8.12055 19.2299 8.40082 19.3932L9.44111 20.0087C9.71525 20.1686 9.94273 20.3975 10.1009 20.6726C10.2592 20.9477 10.3426 21.2595 10.3429 21.5769V22.5402C10.3433 22.8934 10.4839 23.232 10.7338 23.4816C10.9837 23.7312 11.3224 23.8714 11.6756 23.8714H13.7577C14.111 23.8714 14.45 23.7312 14.7001 23.4817C14.9502 23.2321 15.0911 22.8936 15.092 22.5402V21.5769C15.0924 21.2597 15.1757 20.9482 15.3336 20.6731C15.4915 20.3981 15.7185 20.169 15.9922 20.0087L17.0325 19.3932C17.3099 19.2328 17.6247 19.1484 17.9451 19.1484C18.2655 19.1484 18.5802 19.2328 18.8576 19.3932L19.6841 19.8702C19.8352 19.9594 20.0027 20.0172 20.1767 20.0402C20.3507 20.0632 20.5275 20.0509 20.6966 20.0041C20.8654 19.9602 21.0238 19.8832 21.1625 19.7775C21.3012 19.6719 21.4175 19.5396 21.5046 19.3885L22.551 17.5742C22.7259 17.2681 22.7728 16.9054 22.6815 16.565C22.5901 16.2245 22.3678 15.934 22.0632 15.7567L21.223 15.2689C20.9472 15.1092 20.7182 14.8798 20.5588 14.6038C20.3995 14.3278 20.3154 14.0148 20.315 13.6961V12.4958C20.3154 12.1771 20.3995 11.8641 20.5588 11.5881C20.7182 11.3121 20.9472 11.0828 21.223 10.923L22.0647 10.4352C22.3691 10.2577 22.591 9.96702 22.6821 9.6266C22.7732 9.28619 22.7261 8.9236 22.551 8.61778L21.5046 6.80338C21.4175 6.65231 21.3012 6.52011 21.1625 6.41443C21.0238 6.30875 20.8654 6.2317 20.6966 6.18783C20.3549 6.0966 19.9909 6.14417 19.6841 6.32018L18.8561 6.79878C18.5793 6.9602 18.2647 7.04525 17.9443 7.04525C17.6239 7.04525 17.3092 6.9602 17.0325 6.79878L15.9922 6.18323C15.7185 6.02291 15.4915 5.79389 15.3336 5.51884C15.1757 5.24378 15.0924 4.93222 15.092 4.61507V3.6517C15.0911 3.29838 14.9502 2.95982 14.7001 2.71027C14.45 2.46072 14.111 2.32057 13.7577 2.32057H11.6725C11.3193 2.32057 10.9806 2.46077 10.7307 2.71037C10.4808 2.95996 10.3402 3.29852 10.3398 3.6517V4.61507C10.3395 4.93244 10.2561 5.24419 10.0979 5.51931C9.93968 5.79442 9.71215 6.02334 9.43801 6.18323L8.39772 6.79878C8.12052 6.95973 7.8057 7.0445 7.48517 7.0445C7.16463 7.0445 6.84977 6.95973 6.57257 6.79878L5.74775 6.32173C5.59619 6.2336 5.42863 6.17639 5.25482 6.15341C5.08101 6.13043 4.90438 6.14213 4.73512 6.18783C4.56614 6.23168 4.40755 6.30866 4.26858 6.41434C4.12962 6.52001 4.01306 6.65226 3.92566 6.80338L2.87921 8.61778C2.70428 8.92379 2.65742 9.28654 2.7488 9.62698C2.84017 9.96741 3.06241 10.2579 3.36707 10.4352L4.2073 10.923C4.48306 11.0828 4.71203 11.3121 4.87136 11.5881C5.0307 11.8641 5.1148 12.1771 5.11524 12.4958V13.6961C5.1148 14.0148 5.0307 14.3278 4.87136 14.6038C4.71203 14.8798 4.48306 15.1092 4.2073 15.2689L3.36552 15.7567C3.06112 15.9343 2.83922 16.2249 2.74814 16.5653C2.65705 16.9057 2.70415 17.2683 2.87921 17.5742L3.92566 19.3885C4.01306 19.5397 4.12962 19.6719 4.26858 19.7776C4.40755 19.8833 4.56614 19.9603 4.73512 20.0041C4.90419 20.0508 5.0809 20.0632 5.25482 20.0404C5.42874 20.0177 5.59637 19.9603 5.74775 19.8718L6.57412 19.3932C6.84816 19.2324 7.15979 19.147 7.47747 19.1454ZM12.7359 18.0513C11.4197 18.0496 10.1579 17.5261 9.22723 16.5954C8.29656 15.6647 7.77304 14.4029 7.77141 13.0867C7.77304 11.7706 8.29656 10.5088 9.22723 9.57809C10.1579 8.64742 11.4197 8.12384 12.7359 8.12222C14.0523 8.12344 15.3145 8.64685 16.2455 9.57757C17.1765 10.5083 17.7003 11.7703 17.7019 13.0867C17.7003 14.4032 17.1765 15.6652 16.2455 16.5959C15.3145 17.5266 14.0523 18.05 12.7359 18.0513ZM12.7359 9.65652C11.8265 9.65774 10.9547 10.0195 10.3117 10.6626C9.66869 11.3056 9.30689 12.1774 9.30566 13.0867C9.30689 13.9961 9.66869 14.8679 10.3117 15.5109C10.9547 16.1539 11.8265 16.5157 12.7359 16.517C13.6457 16.5161 14.518 16.1546 15.1616 15.5116C15.8052 14.8685 16.1675 13.9965 16.1692 13.0867C16.1675 12.177 15.8052 11.3049 15.1616 10.6619C14.518 10.0189 13.6457 9.65733 12.7359 9.65652Z" fill="#68738D"/>
</g>
<defs>
<clipPath id="clip0_1230_36217">
<rect width="24.6224" height="24.6224" fill="white" transform="translate(0.39563 0.775513)"/>
</clipPath>
</defs>
</svg>
