<svg width="24" height="24" viewBox="0 0 24 24" fill="none" xmlns="http://www.w3.org/2000/svg">
<g id="Text input">
<path id="Vector" d="M18 8C18 6.4087 17.3679 4.88258 16.2426 3.75736C15.1174 2.63214 13.5913 2 12 2C10.4087 2 8.88258 2.63214 7.75736 3.75736C6.63214 4.88258 6 6.4087 6 8C6 15 3 17 3 17H21C21 17 18 15 18 8Z" stroke="#333333" stroke-linecap="round" stroke-linejoin="round"/>
<g id="Ellipse 10">
<mask id="path-2-outside-1_996_27148" maskUnits="userSpaceOnUse" x="8.74393" y="15.6971" width="5.97698" height="5.32701" fill="black">
<rect fill="white" x="8.74393" y="15.6971" width="5.97698" height="5.32701"/>
<path d="M10.4544 17.4295C10.3819 17.6578 10.365 17.9 10.4052 18.1361C10.4455 18.3722 10.5416 18.5952 10.6857 18.7864C10.8298 18.9777 11.0175 19.1317 11.2333 19.2356C11.4491 19.3395 11.6866 19.3902 11.9259 19.3835C12.1653 19.3768 12.3996 19.3128 12.6092 19.1971C12.8188 19.0813 12.9977 18.917 13.1308 18.7179C13.2639 18.5189 13.3474 18.2908 13.3744 18.0529C13.4013 17.8149 13.3709 17.574 13.2857 17.3502L12.8764 17.5061C12.9368 17.6645 12.9583 17.8351 12.9392 18.0036C12.9201 18.1721 12.861 18.3335 12.7667 18.4745C12.6725 18.6154 12.5459 18.7317 12.3974 18.8137C12.249 18.8957 12.0832 18.9409 11.9137 18.9457C11.7442 18.9504 11.576 18.9145 11.4233 18.841C11.2705 18.7675 11.1376 18.6584 11.0356 18.523C10.9336 18.3875 10.8655 18.2296 10.837 18.0625C10.8085 17.8954 10.8204 17.7238 10.8718 17.5623L10.4544 17.4295Z"/>
</mask>
<path d="M10.4544 17.4295C10.3819 17.6578 10.365 17.9 10.4052 18.1361C10.4455 18.3722 10.5416 18.5952 10.6857 18.7864C10.8298 18.9777 11.0175 19.1317 11.2333 19.2356C11.4491 19.3395 11.6866 19.3902 11.9259 19.3835C12.1653 19.3768 12.3996 19.3128 12.6092 19.1971C12.8188 19.0813 12.9977 18.917 13.1308 18.7179C13.2639 18.5189 13.3474 18.2908 13.3744 18.0529C13.4013 17.8149 13.3709 17.574 13.2857 17.3502L12.8764 17.5061C12.9368 17.6645 12.9583 17.8351 12.9392 18.0036C12.9201 18.1721 12.861 18.3335 12.7667 18.4745C12.6725 18.6154 12.5459 18.7317 12.3974 18.8137C12.249 18.8957 12.0832 18.9409 11.9137 18.9457C11.7442 18.9504 11.576 18.9145 11.4233 18.841C11.2705 18.7675 11.1376 18.6584 11.0356 18.523C10.9336 18.3875 10.8655 18.2296 10.837 18.0625C10.8085 17.8954 10.8204 17.7238 10.8718 17.5623L10.4544 17.4295Z" fill="#333333"/>
<path d="M10.4544 17.4295C10.3819 17.6578 10.365 17.9 10.4052 18.1361C10.4455 18.3722 10.5416 18.5952 10.6857 18.7864C10.8298 18.9777 11.0175 19.1317 11.2333 19.2356C11.4491 19.3395 11.6866 19.3902 11.9259 19.3835C12.1653 19.3768 12.3996 19.3128 12.6092 19.1971C12.8188 19.0813 12.9977 18.917 13.1308 18.7179C13.2639 18.5189 13.3474 18.2908 13.3744 18.0529C13.4013 17.8149 13.3709 17.574 13.2857 17.3502L12.8764 17.5061C12.9368 17.6645 12.9583 17.8351 12.9392 18.0036C12.9201 18.1721 12.861 18.3335 12.7667 18.4745C12.6725 18.6154 12.5459 18.7317 12.3974 18.8137C12.249 18.8957 12.0832 18.9409 11.9137 18.9457C11.7442 18.9504 11.576 18.9145 11.4233 18.841C11.2705 18.7675 11.1376 18.6584 11.0356 18.523C10.9336 18.3875 10.8655 18.2296 10.837 18.0625C10.8085 17.8954 10.8204 17.7238 10.8718 17.5623L10.4544 17.4295Z" stroke="#333333" stroke-width="0.6" mask="url(#path-2-outside-1_996_27148)"/>
</g>
</g>
</svg>
