<svg width="16" height="16" viewBox="0 0 16 16" fill="none" xmlns="http://www.w3.org/2000/svg">
<g id="Private">
<path id="Vector" d="M4.01558 15C3.24292 15 2.47026 14.7272 1.88192 14.1809C0.706028 13.0883 0.706028 11.3104 1.88192 10.2178L3.58901 8.63195C3.82483 8.41298 4.20713 8.41298 4.44296 8.63195C4.67878 8.85092 4.67878 9.20591 4.44296 9.42487L2.73586 11.0107C2.03001 11.6661 2.03001 12.7333 2.73586 13.3887C3.44172 14.0449 4.59185 14.0434 5.29771 13.3887L8.71189 10.2178C9.05395 9.90018 9.24229 9.47794 9.24229 9.02879C9.24229 8.57964 9.05395 8.15739 8.71189 7.83978C8.47607 7.62155 8.47607 7.26582 8.71189 7.04685C8.94771 6.82788 9.33002 6.82788 9.56584 7.04685C10.1357 7.57597 10.4504 8.27996 10.4504 9.02804C10.4504 9.77612 10.1357 10.4801 9.56584 11.01L6.15166 14.1809C5.56331 14.7272 4.79065 15 4.01719 15H4.01558ZM7.28811 9.95324C7.52393 9.73427 7.52393 9.37929 7.28811 9.16032C6.94605 8.8427 6.75771 8.42046 6.75771 7.97131C6.75771 7.52216 6.94605 7.09991 7.28811 6.7823L10.7023 3.61135C11.4073 2.95668 12.5575 2.95519 13.2641 3.61135C13.97 4.26676 13.97 5.33396 13.2641 5.98937L11.557 7.57522C11.3212 7.79419 11.3212 8.14917 11.557 8.36814C11.7929 8.58711 12.1752 8.58711 12.411 8.36814L14.1181 6.7823C15.294 5.68969 15.294 3.91178 14.1181 2.81917C12.9398 1.72657 11.0258 1.72732 9.84915 2.81917L6.43497 5.99012C5.86513 6.51923 5.55043 7.22322 5.55043 7.97205C5.55043 8.72088 5.86513 9.42413 6.43497 9.95324C6.55247 10.0624 6.70701 10.1177 6.86154 10.1177C7.01607 10.1177 7.1706 10.0631 7.28811 9.95324Z" fill="#6F6C90"/>
</g>
</svg>
