<svg width="46" height="46" viewBox="0 0 46 46" fill="none" xmlns="http://www.w3.org/2000/svg">
<g id="v2-donut-chart-color" clip-path="url(#clip0_1231_36545)">
<g id="Group 39233">
<g id="Ellipse 102">
<mask id="path-1-inside-1_1231_36545" fill="white">
<path d="M18.5202 43.974C18.3359 44.8489 17.475 45.4143 16.6153 45.169C12.6622 44.041 9.0721 41.873 6.22661 38.8782C3.00841 35.4911 0.894462 31.2061 0.164637 26.5905C-0.565187 21.9749 0.123535 17.2465 2.13962 13.0311C3.92219 9.30404 6.66811 6.13351 10.0801 3.84014C10.8223 3.34132 11.8157 3.61347 12.261 4.38891L14.7843 8.78302C15.2294 9.55813 14.9556 10.5404 14.234 11.0679C12.2709 12.5029 10.6856 14.4065 9.62901 16.6156C8.33881 19.3132 7.89806 22.3392 8.36512 25.2929C8.83217 28.2467 10.185 30.9889 12.2445 33.1565C13.9309 34.9314 16.0261 36.2525 18.3359 37.0115C19.1852 37.2905 19.7489 38.1404 19.5646 39.0152L18.5202 43.974Z"/>
</mask>
<path d="M18.5202 43.974C18.3359 44.8489 17.475 45.4143 16.6153 45.169C12.6622 44.041 9.0721 41.873 6.22661 38.8782C3.00841 35.4911 0.894462 31.2061 0.164637 26.5905C-0.565187 21.9749 0.123535 17.2465 2.13962 13.0311C3.92219 9.30404 6.66811 6.13351 10.0801 3.84014C10.8223 3.34132 11.8157 3.61347 12.261 4.38891L14.7843 8.78302C15.2294 9.55813 14.9556 10.5404 14.234 11.0679C12.2709 12.5029 10.6856 14.4065 9.62901 16.6156C8.33881 19.3132 7.89806 22.3392 8.36512 25.2929C8.83217 28.2467 10.185 30.9889 12.2445 33.1565C13.9309 34.9314 16.0261 36.2525 18.3359 37.0115C19.1852 37.2905 19.7489 38.1404 19.5646 39.0152L18.5202 43.974Z" fill="#00AAE1" stroke="white" stroke-width="0.161875" mask="url(#path-1-inside-1_1231_36545)"/>
</g>
<g id="Ellipse 97">
<mask id="path-2-inside-2_1231_36545" fill="white">
<path d="M44.1074 20.073C44.9934 19.953 45.8149 20.574 45.8723 21.4663C46.069 24.521 45.6551 27.59 44.6488 30.4922C43.4653 33.9052 41.4957 36.9919 38.8991 39.5026C36.3025 42.0133 33.1518 43.8776 29.7017 44.9449C26.768 45.8525 23.6878 46.1621 20.6425 45.8618C19.7529 45.7741 19.1602 44.9321 19.3101 44.0508L20.1443 39.1476C20.2943 38.2662 21.131 37.6826 22.0235 37.7356C23.794 37.8407 25.5736 37.627 27.2765 37.1002C29.4963 36.4135 31.5235 35.214 33.1941 33.5986C34.8648 31.9832 36.132 29.9972 36.8935 27.8013C37.4777 26.1165 37.7516 24.3443 37.7066 22.5704C37.6839 21.6767 38.2954 20.8604 39.1813 20.7404L44.1074 20.073Z"/>
</mask>
<path d="M44.1074 20.073C44.9934 19.953 45.8149 20.574 45.8723 21.4663C46.069 24.521 45.6551 27.59 44.6488 30.4922C43.4653 33.9052 41.4957 36.9919 38.8991 39.5026C36.3025 42.0133 33.1518 43.8776 29.7017 44.9449C26.768 45.8525 23.6878 46.1621 20.6425 45.8618C19.7529 45.7741 19.1602 44.9321 19.3101 44.0508L20.1443 39.1476C20.2943 38.2662 21.131 37.6826 22.0235 37.7356C23.794 37.8407 25.5736 37.627 27.2765 37.1002C29.4963 36.4135 31.5235 35.214 33.1941 33.5986C34.8648 31.9832 36.132 29.9972 36.8935 27.8013C37.4777 26.1165 37.7516 24.3443 37.7066 22.5704C37.6839 21.6767 38.2954 20.8604 39.1813 20.7404L44.1074 20.073Z" fill="#00D2AA" stroke="white" stroke-width="0.161875" mask="url(#path-2-inside-2_1231_36545)"/>
</g>
<g id="Ellipse 101">
<mask id="path-3-inside-3_1231_36545" fill="white">
<path d="M13.3782 3.77379C12.9806 2.97325 13.3052 1.99623 14.1316 1.65563C16.9469 0.495322 19.9696 -0.0968217 23.0251 -0.0803004C26.6211 -0.060857 30.1624 0.801062 33.3654 2.43636C36.5683 4.07165 39.3437 6.43484 41.4691 9.33649C43.275 11.8021 44.569 14.5982 45.2813 17.5596C45.4903 18.4288 44.8895 19.265 44.0078 19.4126L39.1049 20.2334C38.2231 20.381 37.3972 19.7822 37.1545 18.9217C36.6753 17.2234 35.8954 15.6201 34.8476 14.1896C33.4802 12.3227 31.6945 10.8022 29.6337 9.75008C27.5729 8.69792 25.2944 8.14337 22.9808 8.13085C21.2083 8.12127 19.453 8.43002 17.7972 9.03801C16.9578 9.34622 15.9882 9.02872 15.5904 8.22789L13.3782 3.77379Z"/>
</mask>
<path d="M13.3782 3.77379C12.9806 2.97325 13.3052 1.99623 14.1316 1.65563C16.9469 0.495322 19.9696 -0.0968217 23.0251 -0.0803004C26.6211 -0.060857 30.1624 0.801062 33.3654 2.43636C36.5683 4.07165 39.3437 6.43484 41.4691 9.33649C43.275 11.8021 44.569 14.5982 45.2813 17.5596C45.4903 18.4288 44.8895 19.265 44.0078 19.4126L39.1049 20.2334C38.2231 20.381 37.3972 19.7822 37.1545 18.9217C36.6753 17.2234 35.8954 15.6201 34.8476 14.1896C33.4802 12.3227 31.6945 10.8022 29.6337 9.75008C27.5729 8.69792 25.2944 8.14337 22.9808 8.13085C21.2083 8.12127 19.453 8.43002 17.7972 9.03801C16.9578 9.34622 15.9882 9.02872 15.5904 8.22789L13.3782 3.77379Z" fill="#FFCC69" stroke="white" stroke-width="0.161875" mask="url(#path-3-inside-3_1231_36545)"/>
</g>
</g>
</g>
<defs>
<clipPath id="clip0_1231_36545">
<rect width="46" height="46" fill="white"/>
</clipPath>
</defs>
</svg>
