<svg width="46" height="46" viewBox="0 0 46 46" fill="none" xmlns="http://www.w3.org/2000/svg">
<g id="v2-donut-chart-color" clip-path="url(#clip0_1231_36565)">
<path id="Vector" d="M23 46C35.7025 46 46 35.7025 46 23C46 10.2975 35.7025 0 23 0C10.2975 0 0 10.2975 0 23C0 35.7025 10.2975 46 23 46Z" fill="#00AAE1"/>
<path id="Vector_2" d="M23 0C27.0374 4.74471e-08 31.0036 1.04734 34.5 3.03675C37.9964 5.02617 40.8999 7.88756 42.9186 11.3333C44.9373 14.779 46 18.6878 46 22.6667C46 26.6455 44.9373 30.5543 42.9186 34L23 22.6667V0Z" fill="#FFCC69"/>
<path id="Vector_3" d="M43 34.5C40.973 37.9964 38.0576 40.8999 34.547 42.9186C31.0363 44.9373 27.0539 46 23 46C18.9461 46 14.9637 44.9373 11.453 42.9186C7.94225 40.8999 5.02692 37.9964 3 34.5L23 23L43 34.5Z" fill="#00D2AA"/>
</g>
<defs>
<clipPath id="clip0_1231_36565">
<rect width="46" height="46" fill="white"/>
</clipPath>
</defs>
</svg>
