<svg width="21" height="22" viewBox="0 0 21 22" fill="none" xmlns="http://www.w3.org/2000/svg">
<path id="Vector" d="M18.8302 11.5215V11.4215H18.7302H10.1346V2.82586V2.72586H10.0346H9.59981C4.5098 2.72586 0.369376 6.86629 0.369376 11.9563C0.369376 17.0463 4.5098 21.1867 9.59981 21.1867C14.6898 21.1867 18.8302 17.0463 18.8302 11.9563V11.5215ZM17.7416 12.4911C17.4661 16.7411 13.9194 20.1172 9.59981 20.1172C5.24518 20.1172 1.43894 16.4564 1.43894 11.9563C1.43894 7.49122 4.8139 4.08772 9.06503 3.81445V12.3911V12.4911H9.16503H17.7416ZM10.9042 0.986731H10.8042V1.08673V10.6519V10.7519H10.9042H20.4694H20.5694V10.6519V10.2172C20.5694 5.12715 16.429 0.986731 11.3389 0.986731H10.9042ZM11.8737 9.68238V2.07532C15.9474 2.33827 19.2178 5.60872 19.4808 9.68238H11.8737Z" fill="#68738D" stroke="#68738D" stroke-width="0.2"/>
</svg>
